<svg width="206" height="65" viewBox="0 0 206 65" fill="none" xmlns="http://www.w3.org/2000/svg">
<path d="M0 50C0 48.3431 1.34315 47 3 47H7.37981C9.03666 47 10.3798 48.3431 10.3798 50C10.3798 51.6569 9.03666 53 7.37981 53H3C1.34314 53 0 51.6569 0 50Z" fill="#06DF91"/>
<path d="M17 50C17 48.3431 18.3431 47 20 47H24.3798C26.0367 47 27.3798 48.3431 27.3798 50C27.3798 51.6569 26.0367 53 24.3798 53H20C18.3431 53 17 51.6569 17 50Z" fill="#06DF91"/>
<path d="M34 50C34 48.3431 35.3431 47 37 47H41.3798C43.0367 47 44.3798 48.3431 44.3798 50C44.3798 51.6569 43.0367 53 41.3798 53H37C35.3431 53 34 51.6569 34 50Z" fill="#06DF91"/>
<path d="M0 62C0 60.3431 1.34315 59 3 59H7.37981C9.03666 59 10.3798 60.3431 10.3798 62C10.3798 63.6569 9.03666 65 7.37981 65H3C1.34314 65 0 63.6569 0 62Z" fill="#00F0FF"/>
<path d="M51 50C51 48.3431 52.3431 47 54 47H94C95.6569 47 97 48.3431 97 50C97 51.6569 95.6569 53 94 53H54C52.3431 53 51 51.6569 51 50Z" fill="#06DF91"/>
<path d="M16 62C16 60.3431 17.3431 59 19 59H56C57.6569 59 59 60.3431 59 62C59 63.6569 57.6569 65 56 65H19C17.3431 65 16 63.6569 16 62Z" fill="#00F0FF"/>
<path d="M65 62C65 60.3431 66.3431 59 68 59H105C106.657 59 108 60.3431 108 62C108 63.6569 106.657 65 105 65H68C66.3431 65 65 63.6569 65 62Z" fill="#00F0FF"/>
<path d="M114 62C114 60.3431 115.343 59 117 59H154C155.657 59 157 60.3431 157 62C157 63.6569 155.657 65 154 65H117C115.343 65 114 63.6569 114 62Z" fill="#00F0FF"/>
<path d="M163 62C163 60.3431 164.343 59 166 59H203C204.657 59 206 60.3431 206 62C206 63.6569 204.657 65 203 65H166C164.343 65 163 63.6569 163 62Z" fill="#00F0FF"/>
<path fill-rule="evenodd" clip-rule="evenodd" d="M63.2521 11.367C64.3246 11.367 65.194 10.4976 65.194 9.42516V2.44673C65.194 1.09544 66.2894 0 67.6407 0C68.992 0 70.0874 1.09544 70.0874 2.44673V32.5556C70.0874 37.2193 66.3067 41 61.643 41H57.8488C53.1851 41 49.4044 37.2193 49.4044 32.5555V19.8114C49.4044 15.1477 53.1851 11.367 57.8488 11.367H63.2521ZM59.8762 30.1705C62.8077 30.1888 65.194 27.8173 65.194 24.8857V21.3827C65.194 18.4639 62.8278 16.0978 59.909 16.0978C56.9902 16.0978 54.6241 18.4639 54.6241 21.3827V24.8857C54.6241 27.7917 56.9702 30.1525 59.8762 30.1705ZM12.8657 16.2949C14.4805 16.2949 15.7896 17.6039 15.7896 19.2187V19.6959C15.7896 21.0472 16.885 22.1426 18.2363 22.1426C19.5876 22.1426 20.683 21.0472 20.683 19.6959V16.7548C20.683 13.7792 18.2708 11.367 15.2952 11.367H8.44444C3.78071 11.367 0 15.1477 0 19.8114V32.5555C0 37.2193 3.7807 41 8.44444 41H17.7957C19.102 41 20.1611 39.941 20.1611 38.6346C20.1611 37.3282 19.102 36.2692 17.7957 36.2692H12.6904C8.56443 36.2692 5.21969 32.9245 5.21969 28.7985V21.5798C5.21969 18.661 7.58584 16.2949 10.5046 16.2949H12.8657ZM24.7022 32.5555C24.7022 37.2193 28.4829 41 33.1466 41H36.9408C41.6045 41 45.3852 37.2193 45.3852 32.5555V19.8114C45.3852 15.1477 41.6045 11.367 36.9408 11.367H33.1466C28.4829 11.367 24.7022 15.1477 24.7022 19.8114V32.5555ZM35.174 22.1757C38.1055 22.1575 40.4918 24.5289 40.4918 27.4605V30.9843C40.4918 33.9031 38.1256 36.2692 35.2068 36.2692C32.288 36.2692 29.9219 33.9031 29.9219 30.9843V27.4605C29.9219 24.5545 32.2681 22.1937 35.174 22.1757ZM79.3263 32.5897C79.3263 30.5576 80.9736 28.9103 83.0058 28.9103H88.0983C92.762 28.9103 96.5427 25.1296 96.5427 20.4658V19.8114C96.5427 15.1477 92.762 11.367 88.0983 11.367H82.551C77.8873 11.367 74.1066 15.1477 74.1066 19.8114V32.5555C74.1066 37.2193 77.8873 41 82.551 41H94.1773C95.4837 41 96.5427 39.941 96.5427 38.6346C96.5427 37.3282 95.4837 36.2692 94.1773 36.2692H83.0058C80.9736 36.2692 79.3263 34.6219 79.3263 32.5897ZM83.2357 24.0481C81.0766 24.0481 79.3263 22.2978 79.3263 20.1386C79.3263 17.9795 81.0766 16.2292 83.2357 16.2292H87.5905C89.7497 16.2292 91.5 17.9795 91.5 20.1386C91.5 22.2978 89.7497 24.0481 87.5905 24.0481H83.2357Z" fill="white"/>
<path fill-rule="evenodd" clip-rule="evenodd" d="M116.651 27.6386C119.627 27.6386 122.038 25.2268 122.038 22.2517C122.038 19.2766 119.627 16.8647 116.651 16.8647H104.39C102.518 16.8647 101 15.3468 101 13.4744C101 11.6064 102.511 10.0903 104.379 10.0841L118.293 10.0378C124.567 10.017 129.664 15.0971 129.664 21.3711V41.6667C129.664 47.9259 124.59 53 118.331 53H112.333C106.074 53 101 47.9259 101 41.6667V38.1578C101 32.3482 105.71 27.6386 111.519 27.6386H116.651ZM122.038 40.9507C122.038 36.8358 118.703 33.5 114.588 33.5H114.142C110.027 33.5 106.691 36.8358 106.691 40.9507C106.691 45.0656 110.027 48.4014 114.142 48.4014H114.588C118.703 48.4014 122.038 45.0656 122.038 40.9507ZM147.837 17.0946C150.211 17.073 152.147 18.9914 152.147 21.3654V22.0141C152.147 24.0146 153.769 25.6364 155.769 25.6364C157.77 25.6364 159.392 24.0146 159.392 22.0141V17.8182C159.392 13.5003 155.891 10 151.574 10H138.036C135.827 10 134.036 11.7909 134.036 14V49.1871C134.036 51.2929 135.743 53 137.849 53C139.955 53 141.662 51.2929 141.662 49.1871V22.346C141.662 19.4692 143.98 17.1297 146.857 17.1035L147.837 17.0946ZM167.172 19.1698C165.037 19.1698 163.315 20.916 163.344 23.0505L163.706 49.403C163.733 51.3975 165.358 53 167.353 53C169.367 53 171 51.3671 171 49.3529V22.998C171 20.8837 169.286 19.1698 167.172 19.1698ZM166.723 10C164.828 10 163.291 11.5367 163.291 13.4324C163.291 15.328 164.828 16.8647 166.723 16.8647H167.101L167.39 16.8789C169.355 16.975 171 15.4082 171 13.4415C171 11.5408 169.459 10 167.558 10H166.723ZM180.682 43.0843C180.682 44.6113 181.92 45.8492 183.447 45.8492H191.583C194.781 45.8492 197.374 43.2563 197.374 40.0578C197.374 37.3638 195.517 35.0256 192.892 34.4164L183.5 32.2363C178.396 31.0515 174.783 26.5037 174.783 21.264C174.783 15.0431 179.826 10 186.047 10H195.405C200.704 10 205 14.2958 205 19.595V22.0618C205 24.036 203.4 25.6364 201.425 25.6364C199.451 25.6364 197.851 24.036 197.851 22.0618V21.3936C197.851 19.0503 195.951 17.1508 193.608 17.1508H188.045C184.932 17.1508 182.409 19.6745 182.409 22.7876C182.409 25.4057 184.211 27.6792 186.761 28.276L196.059 30.4528C201.185 31.6526 204.809 36.2237 204.809 41.4878V41.7305C204.809 47.9075 199.812 52.9205 193.635 52.9401L184.11 52.9704C178.964 52.9867 174.783 48.8191 174.783 43.6725V41.0759C174.783 39.4469 176.103 38.1264 177.732 38.1264C179.361 38.1264 180.682 39.4469 180.682 41.0759V43.0843Z" fill="url(#paint0_linear)"/>
<defs>
<linearGradient id="paint0_linear" x1="129.723" y1="53" x2="129.723" y2="26.7222" gradientUnits="userSpaceOnUse">
<stop stop-color="white"/>
</linearGradient>
</defs>
</svg>
